<svg width="20" height="20" viewBox="0 0 20 20" fill="none" xmlns="http://www.w3.org/2000/svg">
<path d="M13.0471 13.5875C13.1681 13.6585 13.3001 13.6925 13.4311 13.6925C13.6861 13.6925 13.9351 13.5615 14.0761 13.3265C14.2881 12.9705 14.1711 12.5105 13.8161 12.2975L10.4111 10.2675V5.84546C10.4111 5.43146 10.0761 5.09546 9.66113 5.09546C9.24713 5.09546 8.91113 5.43146 8.91113 5.84546V10.6935C8.91113 10.9575 9.05113 11.2025 9.27713 11.3385L13.0471 13.5875Z" fill="#FAFAFA"/>
<path fill-rule="evenodd" clip-rule="evenodd" d="M0 10C0 15.514 4.486 20 10 20C15.514 20 20 15.514 20 10C20 4.486 15.514 0 10 0C4.486 0 0 4.486 0 10ZM1.5 10C1.5 5.313 5.313 1.5 10 1.5C14.687 1.5 18.5 5.313 18.5 10C18.5 14.687 14.687 18.5 10 18.5C5.313 18.5 1.5 14.687 1.5 10Z" fill="#FAFAFA"/>
</svg>
