<svg width="316" height="708" viewBox="0 0 316 708" fill="none" xmlns="http://www.w3.org/2000/svg">
<path d="M31.6035 530.127C31.6035 530.127 34.0051 560.385 20.9391 580.328C7.87302 600.271 -4.8439 612.988 2.72065 636.401L101.049 586.549L89.0201 518.468L31.6035 530.127Z" fill="#FF2633"/>
<path d="M30.2095 568.955L52.7021 564.469" stroke="white" stroke-width="1.42936" stroke-miterlimit="10" stroke-linecap="round"/>
<path d="M135.279 593.347C135.279 593.347 142.779 624.088 132.631 646.777C122.484 669.466 111.498 684.665 123.156 707.443L216.107 639.839L192.448 571.761L135.279 593.347Z" fill="#FF2633"/>
<path d="M140.1 637.875L163.495 632.923" stroke="white" stroke-width="1.49021" stroke-miterlimit="10" stroke-linecap="round"/>
<path d="M63.519 116.828C63.519 116.828 57.5057 86.5276 68.0875 75.8707C78.6694 65.2138 95.893 60.5421 104.805 62.2963C110.865 63.5065 118.736 66.2739 119.815 82.1467C120.893 98.0194 118.511 103.32 118.511 103.32C118.511 103.32 112.554 124.268 101.128 126.275C89.7015 128.283 67.459 128.226 63.519 116.828Z" fill="#F3ABAA"/>
<path d="M104.6 63.6284C104.6 63.6284 105.276 71.2646 106.092 83.2254" stroke="#FF2633" stroke-width="0.844939" stroke-miterlimit="10" stroke-linecap="round"/>
<path d="M90.0125 66.4241C90.0125 66.4241 91.3164 77.2967 93.399 89.3232C94.8812 97.8224 103.427 100.43 106.945 93.2539" stroke="#FF2633" stroke-width="0.844939" stroke-miterlimit="10" stroke-linecap="round"/>
<path d="M78.0708 72.8875C78.0708 72.8875 79.947 87.5876 80.5662 91.6496C81.1853 95.7116 83.7651 98.6009 86.5982 98.6009C91.0073 98.6009 92.8178 96.5934 93.8685 93.2537" stroke="#FF2633" stroke-width="0.844939" stroke-miterlimit="10" stroke-linecap="round"/>
<path d="M80.5837 94.6049C80.5837 94.6049 78.4448 98.695 76.3059 99.4455C74.167 100.196 69.8799 100.384 68.6135 97.4192C67.544 94.9144 66.9061 91.6404 67.1219 86.6216" stroke="#FF2633" stroke-width="0.844939" stroke-miterlimit="10" stroke-linecap="round"/>
<path d="M99.4689 108.386C99.4689 108.386 92.48 101.115 95.6227 91.2183C98.7653 81.3213 103.306 86.5278 103.306 86.5278C103.306 86.5278 113.147 95.6649 115.717 99.1078C117.743 101.828 120.952 109.427 117.809 113.78C115.234 117.266 111.963 120.18 108.203 122.335C106.946 122.983 103.446 125.628 97.8835 123.039C97.4145 122.814 90.2098 117.617 99.4689 108.386Z" fill="#F3ABAA"/>
<path d="M238.955 374.263C238.955 374.263 258.242 350.351 262.52 325.482L115.312 298.164L35.6673 344.497C15.3198 354.863 -7.92647 385.398 2.89927 435.249C12.5524 479.716 23.0685 540.796 23.1717 541.452C36.0996 548.412 51.0224 550.73 65.4521 548.019C77.2523 545.639 88.3459 540.574 97.873 533.216C97.5353 531.143 81.5125 464.237 75.0959 428.739C72.9476 416.853 73.1258 406.769 83.7733 401.055C83.7733 401.055 107.695 390.051 115.312 386.13C118.943 384.254 125.172 380.502 131.42 376.637C114.534 397.819 109.928 405.418 107.029 410.277C97.5353 426.225 85.2837 438.523 93.0512 491.573C96.6441 516.114 105.641 539.689 118.38 577.719C121.251 586.275 124.299 595.543 127.527 605.759C127.527 605.759 149.225 609.155 170.595 602.007C193.4 594.408 202.622 576.143 202.622 576.143C163.221 485.232 163.353 471.01 173.991 446.16C178.381 435.859 213.757 402.641 238.955 374.263Z" fill="#0D0F44"/>
<path d="M132.537 372.537L128.7 358.991" stroke="white" stroke-width="0.844939" stroke-miterlimit="10" stroke-linecap="round"/>
<path d="M123.654 593.649C123.654 593.649 160.015 602.092 188.57 575.872" stroke="white" stroke-width="0.844939" stroke-miterlimit="10" stroke-linecap="round"/>
<path d="M21.1191 529.717C21.1191 529.717 42.2547 541.509 66.5422 533.544" stroke="white" stroke-width="0.844939" stroke-miterlimit="10" stroke-linecap="round"/>
<path d="M304.368 202.196C288.749 161.201 248.026 134.183 220.971 126.65C207.578 121.587 192.986 120.608 179.037 123.836C141.513 126.913 107.207 165.769 107.207 165.769C106.747 152.007 106.456 131.06 106.372 124.437C106.359 123.04 105.819 121.7 104.861 120.684C101.475 117.129 92.7598 109.202 83.1067 110.365C76.6655 111.198 70.569 113.755 65.4609 117.767C63.9116 118.982 62.7696 120.642 62.1869 122.523C28.3495 232.703 38.1714 258.051 54.016 268.239C68.9788 277.864 80.8927 268.126 94.6454 259.796C93.5572 268.445 92.666 277.62 92.0468 287.423C92.0468 287.423 89.9173 306.504 106.203 314.863C140.659 332.527 171.157 349.404 260.24 331.073C260.24 331.073 263.251 324.356 266.91 313.033C272.576 314.219 278.437 314.11 284.056 312.714C289.674 311.319 294.905 308.674 299.359 304.975C317.192 293.502 322.023 248.529 304.368 202.196Z" fill="#22319E"/>
<path d="M258.981 188.322C258.981 188.322 264.891 223.547 262.517 234.232" stroke="white" stroke-width="0.844939" stroke-miterlimit="10" stroke-linecap="round"/>
<path d="M140.313 152.158C140.313 152.158 114.506 170.385 96.5596 250.978" stroke="white" stroke-width="0.844939" stroke-miterlimit="10" stroke-linecap="round"/>
<path d="M234.731 12.2578C234.731 12.2578 246.927 19.8283 246.43 38.6467C246.43 38.6467 252.293 36.4046 256.43 38.8343C262.912 42.5868 266.214 58.0561 257.171 74.8857C257.171 74.8857 247.865 102.766 235.716 95.0832L199.693 53.0373L234.731 12.2578Z" fill="#0D0F44"/>
<path d="M198.651 83.2725C197.338 101.49 184.664 128.499 184.664 128.499C184.664 128.499 197.798 143.18 232.273 134.85C232.273 134.85 233.633 117.129 233.821 111.744C234.656 88.4977 230.941 80.1392 230.669 84.2106L198.651 83.2725Z" fill="#F3ABAA"/>
<path d="M192.039 110.318C192.039 110.318 216.43 115.947 233.738 97.3253C233.691 96.5655 233.644 95.8431 233.588 95.1489L196.363 96.2934C195.153 101.078 193.605 105.9 192.039 110.318Z" fill="#0D0F44"/>
<path d="M210.652 104.652C231.407 104.652 248.233 87.8264 248.233 67.0712C248.233 46.3161 231.407 29.4907 210.652 29.4907C189.897 29.4907 173.072 46.3161 173.072 67.0712C173.072 87.8264 189.897 104.652 210.652 104.652Z" fill="#F3ABAA"/>
<path d="M247.379 75.8895C245.071 80.3643 242.613 79.9234 241.91 78.4787C239.977 74.4636 241.563 70.9739 239.508 57.8404C238.767 53.5261 236.488 49.6267 233.092 46.8646C223.026 38.1214 206.825 40.2509 206.515 40.2978C202.547 40.5136 198.71 41.8645 195.173 42.8682C166.777 50.9359 165.848 32.8399 165.848 24.988C165.848 11.7044 176.336 0.925537 189.301 0.925537C193.384 0.948513 197.39 2.04275 200.918 4.09887C204.445 6.155 207.372 9.101 209.404 12.6425C213.169 9.03057 218.184 7.01379 223.401 7.01385C234.78 7.01385 244.039 16.4887 244.039 28.1681C244.048 31.6387 243.218 35.06 241.619 38.1402C246.741 41.6112 249.002 49.4913 249.743 52.5495C251.31 58.9755 250.174 70.4579 247.379 75.8895Z" fill="#0D0F44"/>
<path d="M217.097 62.4628C217.436 59.5449 216.552 57.0444 215.121 56.8779C213.691 56.7113 212.256 58.9418 211.916 61.8597C211.576 64.7776 212.461 67.2781 213.891 67.4446C215.322 67.6112 216.757 65.3807 217.097 62.4628Z" fill="#0D0F44"/>
<path d="M197.596 60.184C197.936 57.2661 197.051 54.7656 195.621 54.5991C194.19 54.4325 192.755 56.663 192.415 59.5809C192.076 62.4988 192.96 64.9993 194.391 65.1658C195.821 65.3324 197.257 63.1019 197.596 60.184Z" fill="#0D0F44"/>
<path d="M214.524 85.3831C214.524 85.3831 221.373 88.0942 224.206 79.4824" stroke="#0D0F44" stroke-width="0.844939" stroke-miterlimit="10" stroke-linecap="round"/>
<path d="M251.155 83.3744C256.667 79.3609 258.93 73.0788 256.21 69.3428C253.489 65.6068 246.816 65.8317 241.304 69.8451C235.792 73.8585 233.529 80.1407 236.25 83.8767C238.97 87.6127 245.643 87.3878 251.155 83.3744Z" fill="#F3ABAA"/>
<path d="M241.907 78.4787L253.005 73.7319" stroke="#0D0F44" stroke-width="0.844939" stroke-miterlimit="10" stroke-linecap="round"/>
<path d="M204.638 62.2683L202.19 72.7376C202.119 73.0417 202.112 73.3572 202.17 73.6641C202.228 73.9709 202.349 74.2624 202.525 74.52C202.701 74.7776 202.93 74.9957 203.195 75.1605C203.46 75.3252 203.757 75.4329 204.066 75.4768L206.58 75.8802" stroke="#0D0F44" stroke-width="0.844939" stroke-miterlimit="10" stroke-linecap="round"/>
<path d="M233.12 332.02L120.2 313.746C115.933 313.056 112.087 310.77 109.441 307.351C106.796 303.932 105.548 299.635 105.951 295.331L113.315 216.53C114.112 208.087 121.495 202.721 129.985 202.346C147.631 201.577 167.734 200.948 191.74 203.125C214.846 205.226 232.257 207.881 245.653 210.16C261.404 212.834 267.173 221.802 266.02 234.091L258.712 312.217C258.431 315.238 257.532 318.17 256.07 320.829C254.609 323.488 252.616 325.819 250.217 327.676C247.817 329.533 245.061 330.877 242.12 331.624C239.179 332.372 236.115 332.506 233.12 332.02Z" fill="white"/>
<path d="M165.109 297.883L157.755 288.342L146.554 291.241C150.575 280.388 155.772 270.007 162.051 260.283L178.449 271.184C173.069 279.586 168.598 288.536 165.109 297.883ZM178.449 271.184L170.25 265.715L178.449 271.175V271.184Z" fill="#FF2633"/>
<path d="M188.336 299.29C184.584 284.365 183.421 267.441 183.374 266.728L203.074 265.434C203.074 265.593 204.153 281.316 207.474 294.468L196.216 290.331L188.336 299.29Z" fill="#FF2633"/>
<path d="M162.058 260.255C161.899 260.481 160.323 262.863 158.109 266.7C161.959 272.309 167.613 276.431 174.131 278.38C176.533 274.083 178.334 271.344 178.447 271.184L170.248 265.725L162.058 260.255Z" fill="#0D0F44"/>
<path d="M203.036 265.434L183.335 266.728C183.335 267.122 183.729 272.498 184.686 279.758C191.658 279.529 198.343 276.936 203.645 272.404C203.223 268.267 203.036 265.499 203.036 265.434Z" fill="#0D0F44"/>
<path d="M213.3 248.637C213.935 233.356 201.122 220.414 184.682 219.731C168.241 219.048 154.398 230.881 153.763 246.163C153.128 261.444 165.941 274.385 182.382 275.069C198.822 275.752 212.665 263.918 213.3 248.637Z" fill="#FF2633"/>
<path d="M186.48 235.03L188.487 240.883C188.597 241.193 188.78 241.473 189.02 241.698C189.259 241.923 189.55 242.088 189.866 242.178L195.832 243.829C196.197 243.932 196.526 244.134 196.782 244.414C197.038 244.693 197.211 245.039 197.281 245.411C197.351 245.784 197.316 246.169 197.179 246.522C197.043 246.876 196.81 247.184 196.508 247.413L191.564 251.165C191.301 251.363 191.09 251.621 190.95 251.919C190.809 252.216 190.743 252.544 190.757 252.872L191.029 259.054C191.045 259.433 190.955 259.809 190.768 260.14C190.582 260.47 190.307 260.742 189.974 260.924C189.642 261.107 189.265 261.193 188.886 261.172C188.507 261.152 188.141 261.026 187.83 260.809L182.765 257.253C182.495 257.065 182.182 256.945 181.856 256.904C181.529 256.863 181.197 256.902 180.888 257.019L175.091 259.176C174.736 259.307 174.351 259.337 173.981 259.262C173.61 259.186 173.267 259.009 172.991 258.75C172.716 258.491 172.518 258.16 172.42 257.795C172.321 257.429 172.327 257.043 172.436 256.681L174.247 250.771C174.347 250.454 174.368 250.117 174.308 249.789C174.247 249.462 174.107 249.155 173.9 248.895L170.006 244.007C169.773 243.71 169.627 243.353 169.584 242.977C169.542 242.601 169.605 242.221 169.767 241.879C169.929 241.537 170.182 241.247 170.5 241.042C170.817 240.836 171.186 240.723 171.564 240.714L177.755 240.602C178.086 240.593 178.41 240.503 178.698 240.339C178.986 240.176 179.229 239.944 179.406 239.664L182.83 234.504C183.04 234.177 183.34 233.918 183.693 233.756C184.047 233.595 184.439 233.539 184.824 233.594C185.208 233.649 185.569 233.814 185.862 234.069C186.156 234.323 186.37 234.657 186.48 235.03Z" fill="#FFD550"/>
<path d="M133.533 208.838C133.533 208.838 120.718 207.487 119.602 218.725L118.439 229.983" stroke="#DADEEB" stroke-width="1.26741" stroke-miterlimit="10" stroke-linecap="round"/>
<path d="M231.113 214.691C231.113 214.691 246.123 215.883 254.716 221.774" stroke="#DADEEB" stroke-width="1.26741" stroke-miterlimit="10" stroke-linecap="round"/>
<path d="M241.301 253.576C241.301 253.576 244.35 239.823 260.138 244.917C275.927 250.011 281.611 260.481 281.555 265.415C281.555 267.704 283.056 310.05 270.42 313.549C265.016 315.05 242.277 313.399 237.736 293.793C233.196 274.186 241.301 253.576 241.301 253.576Z" fill="#F3ABAA"/>
<path d="M244.404 251.991C244.404 251.991 255.877 253.642 261.525 258.342" stroke="#FF2633" stroke-width="0.844939" stroke-miterlimit="10" stroke-linecap="round"/>
<path d="M241.429 263.933C241.429 263.933 252.902 265.584 258.55 270.284" stroke="#FF2633" stroke-width="0.844939" stroke-miterlimit="10" stroke-linecap="round"/>
<path d="M240.097 274.805C240.097 274.805 251.617 276.456 257.246 281.147" stroke="#FF2633" stroke-width="0.844939" stroke-miterlimit="10" stroke-linecap="round"/>
<path d="M240.097 287.948C240.097 287.948 249.244 287.948 254.891 292.639" stroke="#FF2633" stroke-width="0.844939" stroke-miterlimit="10" stroke-linecap="round"/>
</svg>
