<svg width="20" height="20" viewBox="0 0 20 20" fill="none" xmlns="http://www.w3.org/2000/svg">
<path d="M9.99792 0.622559C6.20837 0.622559 3.12354 3.7074 3.12354 7.49694C3.12353 14.1649 9.61037 19.2341 9.61037 19.2341C9.7211 19.3225 9.85856 19.3706 10.0002 19.3706C10.1419 19.3706 10.2794 19.3225 10.3901 19.2341C10.3901 19.2341 16.8769 14.1649 16.8769 7.49694C16.8769 3.7074 13.7875 0.622559 9.99792 0.622559ZM9.99792 1.87287C13.1119 1.87287 15.6266 4.38294 15.6266 7.49694C15.6266 12.9519 10.6871 17.2617 10.0025 17.8454C9.32124 17.2646 4.37384 12.954 4.37384 7.49694C4.37384 4.38294 6.88392 1.87287 9.99792 1.87287Z" fill="#B0B0D1"/>
<path d="M9.99797 4.37354C8.27949 4.37354 6.87452 5.77852 6.87451 7.497C6.8745 9.2155 8.27948 10.6251 9.99797 10.6251C11.7165 10.6251 13.1261 9.2155 13.126 7.497C13.126 5.77852 11.7165 4.37354 9.99797 4.37354ZM9.99797 5.62384C11.0409 5.62384 11.8757 6.45406 11.8757 7.497C11.8757 8.53993 11.0409 9.37476 9.99797 9.37476C8.95503 9.37476 8.12481 8.53993 8.12482 7.497C8.12482 6.45406 8.95504 5.62384 9.99797 5.62384Z" fill="#B0B0D1"/>
</svg>
