<svg width="268" height="55" viewBox="0 0 268 55" fill="none" xmlns="http://www.w3.org/2000/svg">
<g clip-path="url(#clip0_57_60)">
<path d="M20.2995 13.5011C20.4654 13.4414 20.7773 13.3485 20.9962 13.2955C21.2616 13.2358 21.6199 13.2158 22.0579 13.2358C22.4228 13.249 22.9537 13.322 23.2324 13.4016C23.5177 13.4746 23.9357 13.6073 24.1613 13.7001C24.3936 13.793 25.1168 14.1712 25.7737 14.5493C26.4307 14.9275 27.3728 15.4782 27.8639 15.7701C28.3549 16.062 28.9454 16.4004 29.171 16.5265C29.4033 16.6525 29.5957 16.7852 29.6156 16.8183C29.6289 16.8582 29.3436 17.4088 28.9786 18.0457C28.6137 18.6827 27.9236 19.8835 27.4392 20.7195C26.9615 21.5488 26.5302 22.2387 26.4837 22.2586C26.4439 22.2786 26.0391 22.0862 25.5879 21.8341C25.1434 21.5753 24.6656 21.3232 24.5263 21.2701C24.3936 21.2104 24.1016 21.164 23.8826 21.164C23.6636 21.164 23.4049 21.2038 23.2987 21.2569C23.1991 21.3099 23.0532 21.4227 22.9735 21.509C22.9006 21.5886 22.1243 22.8889 21.255 24.3817C20.3924 25.8811 19.1648 27.9975 18.5345 29.0922C17.9041 30.1869 17.3401 31.1489 17.2671 31.2219C17.1941 31.3147 16.4576 31.6199 15.2433 32.0711C14.1883 32.4559 13.3058 32.7744 13.2659 32.7744C13.2262 32.7744 13.1863 32.8075 13.1664 32.8407C13.1465 32.8738 13.2991 33.8027 13.4982 34.8974C13.6972 35.9921 13.8631 36.9541 13.8631 37.0404C13.8631 37.1199 13.6508 37.5446 13.392 37.9824C13.1332 38.4203 12.6223 39.316 12.2507 39.9728C11.8858 40.6296 10.8904 42.3612 10.0478 43.8208C9.19843 45.2803 8.46189 46.5675 8.40883 46.6736C8.34909 46.7864 8.28275 46.9655 8.26285 47.0717C8.23629 47.1845 8.2429 47.3902 8.28274 47.5361C8.31592 47.682 8.46189 47.9341 8.60126 48.0934C8.76712 48.2792 9.17187 48.5645 9.78233 48.9227C10.4791 49.3341 10.7113 49.4999 10.7113 49.5994C10.7047 49.6658 10.0212 50.913 9.18515 52.3594C8.24957 53.9716 7.61922 54.9932 7.55949 54.9999C7.50642 54.9999 6.39827 54.3829 5.10437 53.6332C3.81046 52.8769 2.55636 52.1206 2.31749 51.948C2.07861 51.7755 1.63403 51.3642 1.32881 51.0457C0.924044 50.6079 0.705077 50.3093 0.492743 49.8913C0.340128 49.5795 0.160971 49.0886 0.0946172 48.7967C0.00172131 48.3919 -0.0181849 48.1001 0.0149922 47.5693C0.0348984 47.0783 0.101252 46.7068 0.227326 46.3087C0.326857 45.9969 0.52592 45.506 0.671898 45.214C0.817878 44.9221 1.15629 44.3117 1.41507 43.8539C1.68048 43.3962 2.01226 42.819 2.1516 42.5602C2.29094 42.3081 2.83505 41.3527 3.36588 40.4372C3.89672 39.5282 4.81241 37.9426 5.40296 36.9209C5.99351 35.8992 6.66369 34.7514 7.30732 33.67L7.26754 32.2104C7.24097 31.4077 7.2078 30.439 7.14146 29.3576L8.56141 28.6012C9.34441 28.1833 10.2004 27.7321 10.4658 27.5862C10.9236 27.3407 10.9568 27.3141 11.3019 26.7237C11.4943 26.3853 12.191 25.1845 12.8346 24.05C13.4849 22.9221 14.1352 21.7876 14.2811 21.5289C14.4271 21.2701 14.9779 20.3214 15.5087 19.4058C16.0396 18.4969 16.7297 17.316 17.0415 16.7852C17.3534 16.2544 17.778 15.5976 17.9837 15.3256C18.1895 15.0536 18.5345 14.6688 18.7468 14.4764C18.9592 14.2774 19.3307 14.0054 19.5696 13.866C19.8084 13.72 20.1336 13.5608 20.2995 13.5011Z" fill="#C687FF"/>
<path d="M254.397 21.4626C254.743 21.4029 255.313 21.3299 255.658 21.3034C256.003 21.2702 256.613 21.2437 257.018 21.2371C257.423 21.2371 258.093 21.2635 258.511 21.2968C258.93 21.3299 259.487 21.3962 259.739 21.4361C259.991 21.4759 260.502 21.582 260.867 21.6749C261.232 21.7612 261.803 21.9403 262.128 22.0663C262.453 22.1924 262.917 22.4047 263.156 22.5374C263.395 22.6635 263.767 22.8956 263.985 23.0549C264.204 23.2074 264.563 23.4994 264.782 23.6985C265.001 23.8975 265.353 24.2823 265.558 24.5543C265.764 24.8263 266.056 25.2708 266.202 25.5428C266.348 25.8148 266.574 26.3523 266.699 26.7371C266.826 27.1218 266.978 27.699 267.031 28.0308C267.084 28.3625 267.157 28.8734 267.237 29.7226H261.431V29.57C261.431 29.4903 261.384 29.2449 261.325 29.0259C261.265 28.807 261.126 28.4355 261.013 28.2032C260.88 27.9379 260.655 27.6393 260.402 27.4005C260.184 27.1948 259.885 26.9626 259.739 26.8896C259.593 26.81 259.261 26.684 259.009 26.6044C258.631 26.4783 258.345 26.4451 257.449 26.4252C256.6 26.3987 256.242 26.4186 255.857 26.4982C255.585 26.5579 255.187 26.6906 254.968 26.7901C254.749 26.8896 254.457 27.0953 254.298 27.2678C254.132 27.4536 253.979 27.7057 253.9 27.9312C253.814 28.1966 253.793 28.4089 253.814 28.7274C253.833 28.9662 253.906 29.2648 253.966 29.3909C254.033 29.5169 254.152 29.7226 254.238 29.8354C254.325 29.9548 254.537 30.1472 254.709 30.2666C254.889 30.3794 255.193 30.5452 255.392 30.6249C255.592 30.7045 257.085 31.0561 258.71 31.4077C260.336 31.7527 262.048 32.1641 262.526 32.3166C263.004 32.4692 263.661 32.7147 263.985 32.8673C264.31 33.0199 264.842 33.3184 265.16 33.5241C265.485 33.7298 265.963 34.1213 266.235 34.38C266.5 34.6454 266.859 35.07 267.024 35.3287C267.184 35.5875 267.396 35.9722 267.489 36.1912C267.575 36.4101 267.702 36.7551 267.755 36.9542C267.814 37.1532 267.887 37.5513 267.927 37.8299C267.967 38.1152 268 38.5929 268 38.8914C268 39.1966 267.954 39.7274 267.901 40.0724C267.848 40.4173 267.761 40.8353 267.708 41.0012C267.662 41.1671 267.535 41.4922 267.436 41.731C267.337 41.9698 267.091 42.4144 266.892 42.7262C266.686 43.038 266.281 43.5289 265.983 43.8209C265.684 44.1128 265.233 44.4909 264.981 44.6635C264.722 44.8293 264.291 45.088 264.019 45.234C263.746 45.38 263.236 45.6055 262.891 45.7316C262.546 45.8643 261.962 46.0434 261.597 46.143C261.232 46.2358 260.575 46.3751 260.137 46.4415C259.699 46.5145 258.816 46.6074 258.18 46.6472C257.31 46.7069 256.726 46.7002 255.857 46.6472C255.22 46.6007 254.384 46.5145 253.999 46.4481C253.615 46.3818 253.017 46.2491 252.672 46.1562C252.327 46.0633 251.743 45.8643 251.378 45.7117C251.013 45.5658 250.502 45.3203 250.25 45.1677C249.998 45.015 249.62 44.7696 249.421 44.6236C249.222 44.4777 248.85 44.146 248.605 43.8872C248.353 43.6351 247.981 43.1707 247.775 42.8589C247.57 42.547 247.291 42.0428 247.158 41.731C247.025 41.4192 246.839 40.8553 246.74 40.4704C246.647 40.0856 246.541 39.462 246.501 39.0772C246.468 38.6924 246.435 38.3275 246.435 38.2612C246.435 38.155 246.627 38.1483 252.606 38.1483L252.633 38.2943C252.652 38.3806 252.699 38.6128 252.745 38.8118C252.785 39.0108 252.911 39.3691 253.024 39.608C253.15 39.88 253.362 40.1785 253.594 40.4041C253.8 40.6097 254.145 40.8685 254.364 40.9813C254.583 41.0941 254.988 41.2533 255.26 41.3329C255.645 41.4457 256.003 41.4855 256.819 41.512C257.722 41.5386 257.981 41.5253 258.545 41.4059C258.909 41.3329 259.388 41.1803 259.606 41.0742C259.825 40.968 260.15 40.7358 260.323 40.5567C260.522 40.351 260.688 40.1055 260.774 39.8734C260.86 39.6544 260.913 39.3359 260.92 39.0772C260.92 38.8384 260.887 38.5266 260.834 38.3806C260.787 38.2346 260.668 38.0024 260.575 37.8697C260.482 37.7371 260.237 37.5181 260.037 37.3854C259.838 37.2593 259.494 37.0935 259.274 37.0205C259.055 36.9475 257.788 36.6622 256.454 36.3902C255.121 36.1116 253.853 35.8396 253.634 35.7865C253.415 35.7334 252.951 35.5941 252.606 35.4813C252.261 35.3685 251.65 35.123 251.245 34.9373C250.841 34.7449 250.284 34.4331 249.998 34.2473C249.72 34.0549 249.268 33.6833 249.003 33.418C248.738 33.1592 248.399 32.7612 248.246 32.5422C248.1 32.3233 247.888 31.9584 247.769 31.7262C247.656 31.5006 247.49 31.0694 247.403 30.7642C247.318 30.4656 247.205 29.8884 247.158 29.4903C247.099 28.9331 247.099 28.588 247.158 28.0308C247.198 27.6327 247.291 27.0754 247.371 26.8034C247.443 26.5314 247.623 26.0536 247.769 25.7418C247.914 25.43 248.167 24.9988 248.326 24.7798C248.478 24.5609 248.844 24.1562 249.129 23.8776C249.421 23.5989 249.905 23.2074 250.217 23.0084C250.529 22.8028 250.927 22.5639 251.113 22.4711C251.292 22.3848 251.73 22.2057 252.075 22.073C252.42 21.9469 252.944 21.781 253.236 21.7015C253.528 21.6285 254.052 21.5223 254.397 21.4626Z" fill="#FFFCFC"/>
<path d="M37.2861 2.91918C38.0559 1.58565 38.7592 0.384801 38.8521 0.252111C38.9384 0.112787 39.0446 0 39.0777 0C39.1175 0 40.1792 0.60374 41.4466 1.33354C42.7206 2.06996 43.9348 2.79312 44.1538 2.93909C44.3728 3.09168 44.7909 3.44994 45.0894 3.74849C45.3814 4.04041 45.7397 4.45838 45.879 4.67732C46.025 4.89626 46.2241 5.29433 46.3236 5.55971C46.4231 5.81846 46.5426 6.25633 46.5824 6.51508C46.6222 6.78043 46.6421 7.23822 46.6156 7.53016C46.5957 7.8221 46.516 8.28649 46.4364 8.55848C46.3634 8.83054 46.1909 9.29493 46.0516 9.58687C45.9189 9.87874 45.5805 10.5024 45.3084 10.9801C45.0297 11.4511 44.6781 12.0814 44.5188 12.3734C44.3749 12.6486 43.6762 13.8563 42.9404 15.1281L42.8068 15.3589C42.0238 16.7123 40.9556 18.5434 40.438 19.4391C39.9204 20.3348 39.4493 21.1574 39.3962 21.2635C39.3099 21.4361 39.3033 21.7479 39.3564 23.5525C39.383 24.7002 39.3962 25.6821 39.3763 25.7219C39.3564 25.7684 39.0976 25.9409 38.7924 26.1001C38.4938 26.2593 37.6644 26.6906 35.6605 27.719L34.2737 30.1272C33.5173 31.4542 32.2366 33.6767 31.4337 35.0633C30.6242 36.45 29.7151 38.0024 29.4099 38.5133C29.1047 39.0241 28.6933 39.6345 28.5008 39.8734C28.3151 40.1122 27.9634 40.4704 27.7245 40.6695C27.4856 40.8685 27.0809 41.1472 26.8287 41.2799C26.5766 41.4126 26.132 41.585 25.8401 41.658C25.5083 41.7443 25.1035 41.7973 24.7584 41.7973C24.4599 41.7973 24.0153 41.7509 23.7631 41.6978C23.5176 41.6447 23.1129 41.532 22.8541 41.4457C22.5953 41.3595 22.164 41.1737 21.892 41.0344C21.6199 40.8951 20.5715 40.2979 19.5695 39.7075C18.5676 39.117 17.5922 38.5597 17.413 38.4668C17.2273 38.374 17.0614 38.2612 17.0415 38.2081C17.0149 38.155 17.36 37.4717 17.8841 36.5561C18.3752 35.7002 19.0653 34.4928 19.417 33.8757C19.7753 33.2587 20.107 32.7413 20.1468 32.7346C20.1933 32.7213 20.5384 32.8872 20.9099 33.0995C21.2881 33.3185 21.7726 33.5772 21.9915 33.6767C22.2702 33.8028 22.5024 33.8625 22.7546 33.8625C23.0001 33.8625 23.1925 33.816 23.3518 33.7298C23.4779 33.6568 23.6703 33.4777 23.7698 33.3317C23.8759 33.1924 24.5926 31.9849 25.3623 30.6514C26.1142 29.3374 27.3043 27.2824 29.2689 23.89L29.3568 23.7382L31.3807 23.0084C32.4954 22.6104 33.4111 22.2787 33.4111 22.272C33.4177 22.2654 33.2651 21.3034 33.0661 20.1357C32.8736 18.9681 32.7277 17.953 32.7542 17.88C32.774 17.807 33.0063 17.389 33.2717 16.9511C33.5305 16.5133 33.9419 15.81 34.1808 15.392C34.4197 14.9741 34.831 14.2376 35.0965 13.7666C35.3619 13.2955 36.1648 11.9023 36.8748 10.6816C37.5914 9.46078 38.2085 8.35948 38.2616 8.24666C38.308 8.12725 38.3478 7.88841 38.3478 7.70929C38.3478 7.47706 38.3014 7.31788 38.1488 7.08565C38.0094 6.86009 37.8038 6.67429 37.4653 6.462C37.2065 6.29614 36.7487 6.01749 36.4568 5.85163C36.1648 5.67913 35.9192 5.49337 35.906 5.44029C35.8927 5.38721 36.5164 4.25272 37.2861 2.91918Z" fill="#C687FF"/>
<path fill-rule="evenodd" clip-rule="evenodd" d="M58.3868 13.269H67.2781L67.6831 14.3836C67.9088 14.994 68.5723 16.8185 69.1697 18.4439C69.7664 20.0694 70.8682 23.0682 71.6246 25.1116C72.3809 27.1551 73.5155 30.2467 74.1528 31.9783C74.7959 33.7099 75.4267 35.4216 75.5595 35.7799C75.6923 36.1382 75.8382 36.4168 75.871 36.4036C75.9043 36.3903 76.3623 35.2292 76.8864 33.8294C77.404 32.4294 78.4123 29.6961 79.1294 27.7654C79.8458 25.8348 81.0602 22.564 81.8231 20.5007C82.586 18.4373 83.502 15.9693 84.4972 13.269H93.4218L93.3885 46.2093H86.3554L86.3417 35.8064C86.322 26.266 86.3155 25.4102 86.216 25.4301C86.1362 25.4367 85.9236 25.941 85.4924 27.1351C85.1541 28.064 83.9666 31.3083 82.8517 34.3336C81.7367 37.3589 80.3568 41.1273 79.7863 42.6931C79.2085 44.2588 78.6844 45.7051 78.4921 46.2425L73.2302 46.2093L72.1421 43.257C71.5513 41.6315 70.3768 38.4072 69.5341 36.0917C68.6986 33.7763 67.4776 30.4325 66.8273 28.6611C65.9446 26.266 65.6129 25.4367 65.5331 25.4301C65.427 25.4102 65.4204 26.1002 65.3872 46.2093L58.3868 46.2425V13.269ZM167.672 13.269H174.773V40.0724H189.901L189.868 46.2093H167.705L167.672 13.269ZM219.362 13.269H226.197V19.1074C226.197 23.7317 226.217 24.9458 226.283 24.9458C226.323 24.9458 226.469 24.76 226.595 24.5344C226.721 24.3089 227.066 23.8776 227.358 23.5857C227.65 23.2872 228.161 22.8692 228.486 22.6568C228.818 22.4379 229.336 22.1526 229.647 22.0133C229.959 21.8806 230.483 21.6882 230.808 21.5954C231.14 21.5024 231.764 21.3764 232.202 21.3233C232.752 21.2503 233.244 21.2304 233.795 21.257C234.232 21.2769 234.862 21.3366 235.188 21.3963C235.519 21.4494 236.117 21.602 236.515 21.7281C236.92 21.8541 237.557 22.1062 237.942 22.292C238.326 22.4844 238.877 22.7962 239.169 22.9952C239.461 23.1876 239.919 23.5393 240.177 23.7648C240.443 23.9971 240.861 24.4083 241.1 24.6804C241.345 24.9524 241.731 25.4633 241.963 25.8083C242.188 26.1532 242.54 26.7835 242.745 27.2015C242.944 27.6195 243.217 28.2763 243.343 28.6611C243.469 29.0459 243.641 29.7159 243.734 30.1538C243.827 30.5918 243.94 31.2353 243.993 31.5802C244.046 31.9717 244.08 32.874 244.08 33.9687C244.08 35.0368 244.046 35.9591 243.993 36.3239C243.947 36.6557 243.847 37.2328 243.774 37.6176C243.694 38.0024 243.516 38.6858 243.369 39.1436C243.223 39.6014 242.938 40.3179 242.739 40.7359C242.54 41.1538 242.181 41.7974 241.936 42.1623C241.691 42.5338 241.186 43.1442 240.795 43.5489C240.41 43.9403 239.846 44.4578 239.534 44.69C239.222 44.9222 238.625 45.2871 238.207 45.5061C237.789 45.7184 237.192 45.9904 236.88 46.0965C236.568 46.2027 236.03 46.3553 235.686 46.4283C235.34 46.5079 234.71 46.6007 234.292 46.6406C233.874 46.6804 233.231 46.6937 232.866 46.6737C232.5 46.6472 231.917 46.5742 231.571 46.5079C231.227 46.4416 230.702 46.3089 230.41 46.2159C230.118 46.1165 229.614 45.9041 229.282 45.7449C228.957 45.579 228.42 45.2473 228.088 44.9952C227.763 44.7498 227.305 44.3185 227.08 44.0465C226.847 43.7811 226.595 43.4294 226.516 43.2703C226.429 43.1176 226.323 42.9916 226.283 42.9916C226.217 42.9916 226.19 43.3697 226.164 46.2093L219.362 46.2425V13.269ZM229.647 27.3408C229.375 27.4536 228.911 27.6991 228.619 27.8915C228.327 28.0905 227.929 28.4222 227.729 28.6345C227.537 28.8535 227.285 29.1587 227.173 29.3245C227.059 29.4904 226.84 29.8885 226.681 30.2202C226.529 30.5519 226.33 31.1026 226.237 31.4476C226.151 31.7926 226.045 32.3433 226.005 32.675C225.965 33.0067 225.931 33.5839 225.931 33.9687C225.931 34.3535 225.965 34.9307 226.005 35.2624C226.045 35.5941 226.151 36.1448 226.237 36.4898C226.33 36.8348 226.548 37.4186 226.721 37.7835C226.9 38.1484 227.219 38.6659 227.431 38.9379C227.65 39.2099 228.002 39.5815 228.221 39.7606C228.44 39.9331 228.918 40.225 229.282 40.4041C229.647 40.5832 230.185 40.7823 230.477 40.8486C230.848 40.9283 231.253 40.9614 231.837 40.9614C232.447 40.9548 232.806 40.915 233.197 40.8089C233.489 40.7359 234 40.5368 234.325 40.3776C234.657 40.2184 235.128 39.9066 235.38 39.6942C235.633 39.4819 236.004 39.1038 236.197 38.845C236.389 38.5929 236.654 38.1882 236.774 37.9494C236.9 37.7106 237.079 37.2925 237.172 37.0205C237.264 36.7485 237.384 36.3173 237.444 36.0585C237.517 35.7534 237.563 35.1297 237.59 34.2672C237.616 33.2123 237.603 32.8142 237.517 32.31C237.457 31.9651 237.331 31.4277 237.238 31.1159C237.139 30.804 236.973 30.3728 236.867 30.1538C236.754 29.9349 236.555 29.5965 236.422 29.3975C236.29 29.1985 236.051 28.8866 235.884 28.7075C235.719 28.5218 235.42 28.2498 235.221 28.0971C235.022 27.9379 234.65 27.7057 234.391 27.5796C234.139 27.4536 233.734 27.2878 233.496 27.2081C233.257 27.1351 232.872 27.0423 232.633 27.0024C232.394 26.9693 231.976 26.9427 231.704 26.9427C231.432 26.9427 230.967 26.9892 230.676 27.0423C230.384 27.0954 229.919 27.2347 229.647 27.3408ZM126.334 15.3921H133.234V21.6948H138.078L138.045 27.0357L133.234 27.0688L133.254 32.9934C133.268 38.8716 133.268 38.9114 133.414 39.3426C133.494 39.5815 133.659 39.9066 133.779 40.0724C133.904 40.2383 134.111 40.4373 134.236 40.5235C134.362 40.6098 134.628 40.7425 134.827 40.8221C135.165 40.9548 135.298 40.968 138.277 40.968V43.5091C138.277 44.9023 138.258 46.0568 138.231 46.07C138.198 46.0899 137.892 46.1629 137.548 46.2359C137.202 46.3022 136.618 46.4017 136.253 46.4416C135.889 46.488 135.066 46.5211 134.429 46.5211C133.699 46.5211 132.996 46.4747 132.538 46.4083C132.14 46.3486 131.556 46.2226 131.244 46.1297C130.932 46.0435 130.501 45.8909 130.282 45.7914C130.062 45.6985 129.678 45.4994 129.432 45.3469C129.18 45.2009 128.762 44.8824 128.503 44.6436C128.238 44.4047 127.873 43.9868 127.681 43.7148C127.495 43.4427 127.229 42.9849 127.097 42.6931C126.964 42.4011 126.792 41.9367 126.718 41.6647C126.646 41.3927 126.539 40.9283 126.48 40.6363C126.4 40.1918 126.38 39.0374 126.334 27.0688L122.253 27.0357L122.219 21.6948H126.334V15.3921ZM109.745 21.2703C110.422 21.2835 111.271 21.3433 111.636 21.3963C112.001 21.456 112.599 21.5688 112.963 21.6617C113.328 21.7479 113.866 21.9072 114.158 22.0133C114.45 22.1195 114.974 22.3517 115.319 22.5241C115.664 22.6967 116.221 23.0218 116.547 23.2473C116.878 23.4663 117.429 23.9373 117.774 24.2823C118.132 24.6406 118.59 25.1846 118.829 25.5429C119.061 25.8878 119.393 26.4651 119.572 26.8233C119.751 27.175 120.01 27.8053 120.156 28.2165C120.295 28.6213 120.474 29.225 120.548 29.5568C120.627 29.8885 120.733 30.4524 120.786 30.8173C120.846 31.1822 120.926 31.9916 120.966 32.6086C121.006 33.2323 121.019 34.035 120.998 34.3999C120.972 34.7648 120.932 35.2027 120.859 35.6937H112.253C105.405 35.6937 103.641 35.7136 103.641 35.7799C103.641 35.8197 103.687 36.1249 103.74 36.4566C103.793 36.7883 103.899 37.2793 103.972 37.5513C104.052 37.8233 104.245 38.3142 104.404 38.646C104.563 38.9777 104.862 39.4488 105.08 39.7009C105.299 39.9663 105.677 40.3112 105.963 40.5037C106.235 40.6894 106.64 40.915 106.858 40.9946C107.078 41.0743 107.422 41.187 107.622 41.2401C107.821 41.2931 108.345 41.3728 108.783 41.4126C109.387 41.4723 109.771 41.4723 110.375 41.4126C110.814 41.3728 111.391 41.2733 111.656 41.2003C111.915 41.1273 112.306 40.9813 112.519 40.8752C112.724 40.769 113.063 40.5501 113.262 40.3908C113.461 40.2317 113.766 39.8933 113.932 39.6345C114.105 39.3824 114.33 38.9578 114.622 38.2148H120.66L120.614 38.4802C120.581 38.6261 120.455 39.064 120.322 39.4621C120.189 39.8535 119.95 40.4572 119.785 40.8022C119.625 41.1472 119.3 41.7178 119.074 42.0627C118.842 42.4078 118.484 42.8855 118.278 43.1243C118.066 43.3631 117.681 43.7479 117.422 43.9735C117.157 44.2057 116.679 44.5772 116.347 44.7962C116.022 45.0151 115.485 45.3269 115.153 45.4795C114.828 45.6387 114.244 45.8776 113.859 46.0037C113.474 46.1297 112.791 46.3089 112.333 46.4017C111.875 46.4946 111.072 46.6007 110.541 46.6472C110.01 46.687 109.234 46.7003 108.816 46.6737C108.398 46.6538 107.708 46.5875 107.29 46.5344C106.872 46.4813 106.215 46.3553 105.83 46.2624C105.445 46.1695 104.881 46.0037 104.57 45.8975C104.258 45.7914 103.707 45.5525 103.342 45.38C102.977 45.2009 102.426 44.8891 102.114 44.6768C101.803 44.4711 101.318 44.1062 101.026 43.8607C100.741 43.6218 100.297 43.184 100.044 42.8921C99.7921 42.6002 99.3936 42.076 99.1613 41.731C98.929 41.3861 98.5842 40.769 98.3919 40.371C98.206 39.9729 97.9541 39.3426 97.8344 38.9777C97.7153 38.6129 97.5426 37.9427 97.4497 37.4849C97.3568 37.0272 97.2442 36.2974 97.2043 35.8595C97.1513 35.3354 97.131 34.4928 97.1579 33.3716C97.184 32.1309 97.2305 31.4874 97.3234 30.95C97.3967 30.5519 97.5158 29.9813 97.589 29.6895C97.6689 29.3975 97.8213 28.8933 97.9339 28.5616C98.0536 28.2298 98.2924 27.6659 98.4651 27.301C98.6438 26.9361 98.9755 26.3523 99.2078 26.0073C99.4335 25.6623 99.9111 25.0851 100.257 24.7202C100.601 24.3619 101.159 23.8644 101.484 23.6189C101.816 23.3734 102.293 23.0549 102.545 22.909C102.804 22.7564 103.189 22.5574 103.408 22.4578C103.627 22.3583 104.091 22.1726 104.437 22.0465C104.782 21.9205 105.365 21.7479 105.73 21.6617C106.096 21.5754 106.726 21.456 107.124 21.403C107.529 21.3433 108.007 21.2835 108.186 21.2703C108.372 21.257 109.068 21.257 109.745 21.2703ZM107.257 26.7437C107.004 26.8167 106.586 26.9892 106.334 27.1218C106.082 27.2612 105.677 27.5465 105.445 27.7654C105.206 27.9844 104.875 28.3758 104.702 28.6279C104.536 28.8866 104.304 29.3179 104.191 29.5899C104.078 29.8619 103.926 30.3264 103.853 30.6182C103.78 30.9102 103.7 31.2618 103.681 31.4011L103.641 31.6466H114.522C114.463 31.003 114.403 30.6249 114.35 30.3861C114.304 30.1472 114.204 29.7756 114.124 29.5568C114.051 29.3378 113.879 28.9663 113.746 28.7274C113.613 28.4886 113.295 28.0839 113.036 27.8251C112.684 27.4802 112.419 27.2878 112.001 27.0821C111.689 26.9294 111.198 26.7437 110.906 26.6641C110.535 26.5712 110.103 26.5182 109.446 26.5049C108.936 26.4916 108.338 26.5049 108.119 26.538C107.9 26.5779 107.515 26.6641 107.257 26.7437ZM152.909 21.2636C153.751 21.2769 154.806 21.3366 155.264 21.3963C155.722 21.456 156.379 21.5621 156.724 21.6351C157.069 21.7081 157.653 21.8674 158.018 21.9868C158.383 22.1062 158.874 22.3053 159.113 22.4247C159.351 22.5441 159.756 22.7763 160.008 22.9422C160.267 23.108 160.672 23.4397 160.911 23.6786C161.149 23.9174 161.488 24.3288 161.654 24.5809C161.82 24.8396 162.046 25.2576 162.152 25.5097C162.264 25.7684 162.41 26.1997 162.484 26.4717C162.556 26.7437 162.656 27.2214 162.709 27.5332C162.775 27.9844 162.796 29.8619 162.796 46.2093H156.293L156.279 44.0399C156.259 42.0163 156.253 41.8637 156.147 41.8637C156.067 41.8637 155.98 41.9765 155.881 42.2087C155.802 42.4011 155.543 42.8456 155.317 43.1906C155.091 43.5356 154.66 44.0598 154.368 44.3517C154.076 44.6436 153.585 45.0549 153.274 45.2606C152.962 45.4663 152.484 45.7383 152.212 45.8644C151.94 45.9904 151.462 46.1695 151.15 46.2624C150.838 46.3619 150.301 46.488 149.956 46.5477C149.525 46.6273 148.974 46.6604 148.198 46.6604C147.454 46.6604 146.844 46.6207 146.405 46.5477C146.041 46.488 145.444 46.3486 145.079 46.2359C144.713 46.1231 144.176 45.9108 143.884 45.7648C143.593 45.6188 143.161 45.3601 142.922 45.1943C142.683 45.0218 142.318 44.7099 142.113 44.5043C141.901 44.292 141.589 43.9005 141.409 43.6418C141.237 43.3764 140.991 42.9186 140.872 42.6267C140.752 42.3348 140.587 41.8306 140.514 41.4988C140.401 41.0079 140.374 40.6828 140.374 39.7075C140.374 38.6924 140.394 38.4271 140.527 37.9162C140.606 37.5845 140.759 37.1134 140.866 36.8547C140.972 36.6026 141.204 36.1846 141.383 35.9258C141.562 35.6737 141.901 35.2823 142.132 35.0568C142.365 34.8311 142.783 34.5061 143.055 34.3336C143.327 34.1545 143.792 33.9023 144.083 33.7697C144.375 33.6303 144.899 33.4313 145.245 33.3185C145.59 33.1991 146.187 33.0332 146.572 32.9469C146.956 32.8541 147.626 32.7214 148.065 32.6484C148.502 32.5754 149.983 32.3499 151.349 32.1442C152.716 31.9452 154.083 31.7196 154.388 31.6466C154.687 31.5736 155.072 31.441 155.251 31.3547C155.424 31.2684 155.629 31.1225 155.709 31.0362C155.788 30.9566 155.908 30.7642 155.967 30.6182C156.06 30.4192 156.087 30.1671 156.087 29.5899C156.087 29.0724 156.047 28.6876 155.967 28.3957C155.908 28.1568 155.775 27.8185 155.676 27.6393C155.576 27.4602 155.363 27.1948 155.198 27.0489C155.032 26.8963 154.72 26.6906 154.501 26.5911C154.282 26.4916 153.851 26.3589 153.539 26.2992C153.107 26.2129 152.736 26.1997 151.946 26.2262C151.13 26.2528 150.812 26.2926 150.387 26.412C150.095 26.4982 149.684 26.6773 149.465 26.8034C149.252 26.9294 148.96 27.1683 148.815 27.3342C148.675 27.5 148.483 27.7853 148.403 27.9644C148.317 28.1502 148.211 28.4554 148.171 28.6478C148.131 28.8336 148.098 29.1786 148.098 29.8221L146.392 29.8752C145.45 29.9017 143.997 29.9216 141.628 29.9216L141.668 28.6478C141.708 27.573 141.741 27.2612 141.887 26.7039C141.98 26.339 142.192 25.7751 142.345 25.4433C142.504 25.1182 142.823 24.614 143.042 24.3354C143.267 24.0501 143.699 23.6255 144.004 23.3866C144.303 23.1478 144.833 22.8028 145.178 22.6303C145.523 22.4512 146.107 22.1991 146.472 22.073C146.837 21.9469 147.408 21.7811 147.733 21.7081C148.065 21.6285 148.662 21.5224 149.06 21.4627C149.465 21.403 150.148 21.33 150.586 21.2968C151.024 21.2636 152.072 21.2503 152.909 21.2636ZM155.496 35.4017C155.317 35.4747 154.959 35.5941 154.7 35.6538C154.448 35.7136 153.141 35.9524 151.8 36.1912C150.221 36.4699 149.199 36.6822 148.914 36.795C148.662 36.8878 148.343 37.0471 148.198 37.1466C148.052 37.2461 147.833 37.4452 147.713 37.5911C147.594 37.7304 147.434 38.0157 147.361 38.2148C147.262 38.4802 147.229 38.7389 147.229 39.1436C147.229 39.4554 147.268 39.8269 147.315 39.9729C147.368 40.1188 147.48 40.371 147.573 40.5368C147.673 40.7027 147.866 40.9283 148.005 41.0477C148.151 41.1604 148.43 41.3264 148.629 41.4192C148.828 41.5055 149.126 41.6116 149.292 41.6515C149.458 41.6912 149.876 41.7443 150.221 41.7709C150.666 41.7974 151.064 41.7775 151.548 41.7045C151.933 41.6448 152.484 41.5121 152.776 41.4126C153.068 41.3131 153.546 41.0941 153.838 40.9349C154.192 40.7359 154.559 40.4484 154.939 40.0724C155.384 39.6345 155.563 39.3957 155.748 39.0109C155.881 38.7389 156.02 38.3209 156.054 38.0821C156.094 37.8433 156.127 37.0736 156.127 36.377C156.127 35.3022 156.113 35.0965 156.034 35.0965C155.98 35.0965 155.908 35.1297 155.881 35.1762C155.855 35.2226 155.682 35.3221 155.496 35.4017ZM203.935 21.2437C204.446 21.237 205.295 21.2636 205.826 21.2968C206.357 21.3366 207.16 21.4294 207.618 21.5024C208.076 21.5754 208.613 21.675 208.812 21.7281C209.011 21.7811 209.416 21.9005 209.708 22C210 22.0996 210.478 22.2986 210.769 22.4446C211.061 22.5905 211.466 22.8227 211.665 22.9554C211.865 23.0947 212.189 23.3469 212.389 23.526C212.588 23.7051 212.873 24.0169 213.025 24.2159C213.185 24.415 213.417 24.7733 213.543 25.0121C213.676 25.2509 213.862 25.6689 213.961 25.941C214.054 26.2129 214.2 26.7106 214.273 27.0357C214.412 27.6261 214.412 27.7588 214.452 46.2425H207.949L207.936 44.073C207.916 41.9566 207.916 41.8969 207.784 41.877C207.677 41.8637 207.618 41.9367 207.485 42.2419C207.398 42.4542 207.146 42.8987 206.927 43.2238C206.709 43.5555 206.278 44.073 205.965 44.3848C205.653 44.6967 205.189 45.0881 204.93 45.2606C204.678 45.4331 204.214 45.6918 203.902 45.8311C203.59 45.9771 203.145 46.1629 202.907 46.2359C202.668 46.3089 202.256 46.415 201.997 46.4747C201.732 46.5278 201.162 46.6074 200.737 46.6472C200.305 46.687 199.655 46.7003 199.29 46.6737C198.925 46.6538 198.342 46.5875 197.996 46.5278C197.651 46.4747 197.113 46.3553 196.802 46.2624C196.49 46.1762 195.972 45.9771 195.641 45.8179C195.315 45.6653 194.897 45.4397 194.712 45.3137C194.532 45.1876 194.174 44.8957 193.922 44.6568C193.676 44.418 193.338 44.0399 193.186 43.8209C193.026 43.602 192.774 43.1707 192.628 42.8589C192.489 42.5471 192.303 42.0561 192.23 41.7642C192.151 41.4723 192.051 40.8752 192.011 40.4373C191.951 39.8336 191.951 39.4621 192.011 38.9114C192.051 38.5133 192.164 37.9228 192.257 37.6044C192.35 37.2793 192.515 36.8348 192.628 36.6092C192.747 36.377 192.933 36.0585 193.04 35.8927C193.152 35.7268 193.385 35.4482 193.551 35.269C193.716 35.0899 194.075 34.7781 194.346 34.5724C194.619 34.3667 195.13 34.0549 195.474 33.8891C195.82 33.7165 196.464 33.4578 196.901 33.3119C197.339 33.1726 198.129 32.9602 198.66 32.8475C199.191 32.7413 200.949 32.456 202.575 32.2106C204.2 31.9717 205.753 31.7196 206.025 31.6532C206.297 31.5869 206.656 31.4608 206.821 31.3812C206.987 31.3016 207.193 31.1689 207.279 31.0893C207.359 31.0163 207.498 30.8306 207.571 30.6846C207.697 30.4591 207.717 30.3064 207.717 29.6231C207.717 29.1786 207.677 28.6677 207.624 28.4621C207.578 28.263 207.445 27.9247 207.326 27.7057C207.213 27.4934 206.994 27.2015 206.842 27.0621C206.682 26.9162 206.417 26.7304 206.244 26.6442C206.065 26.5579 205.76 26.4385 205.56 26.3722C205.315 26.2992 204.871 26.2461 204.2 26.2262C203.457 26.1997 203.053 26.2196 202.595 26.2992C202.256 26.3589 201.792 26.4783 201.566 26.5712C201.334 26.6641 200.976 26.8697 200.77 27.0357C200.537 27.2148 200.305 27.4735 200.186 27.6858C200.073 27.8716 199.941 28.1834 199.887 28.3625C199.827 28.5483 199.768 28.9464 199.701 29.8221L198.003 29.8752C197.067 29.9017 195.621 29.9216 193.252 29.9216L193.298 28.7473C193.332 28.0109 193.391 27.3408 193.471 26.9693C193.544 26.6442 193.69 26.1466 193.796 25.8746C193.896 25.6026 194.121 25.1515 194.293 24.8794C194.46 24.6074 194.818 24.1562 195.09 23.8842C195.355 23.6122 195.787 23.2473 196.039 23.0815C196.298 22.909 196.716 22.6701 196.968 22.5374C197.227 22.4114 197.731 22.1991 198.096 22.073C198.461 21.9469 199.118 21.7678 199.555 21.675C199.994 21.5821 200.77 21.456 201.281 21.403C201.792 21.3433 202.389 21.2901 202.608 21.2769C202.827 21.2636 203.424 21.2503 203.935 21.2437ZM207.22 35.3619C207.093 35.4283 206.821 35.5278 206.622 35.5809C206.423 35.6406 205.076 35.8993 203.636 36.1515C202.197 36.4102 200.896 36.6623 200.75 36.7087C200.604 36.7618 200.325 36.8812 200.14 36.9807C199.947 37.0736 199.662 37.2793 199.509 37.4385C199.356 37.5911 199.158 37.883 199.065 38.0821C198.952 38.3408 198.892 38.6062 198.872 38.9777C198.845 39.3891 198.872 39.6146 198.985 39.9928C199.098 40.3842 199.191 40.5368 199.476 40.842C199.695 41.0809 199.967 41.2799 200.219 41.3993C200.438 41.4988 200.797 41.6249 201.015 41.6713C201.255 41.7244 201.779 41.7576 202.309 41.7509C203.026 41.7443 203.331 41.7112 203.836 41.5785C204.181 41.4922 204.705 41.3064 204.996 41.1737C205.288 41.0344 205.706 40.7956 205.926 40.643C206.145 40.4838 206.516 40.152 206.741 39.8999C206.987 39.6412 207.259 39.2431 207.392 38.9777C207.518 38.7256 207.651 38.3475 207.684 38.1484C207.724 37.9494 207.757 37.1798 207.757 36.4433C207.763 35.6074 207.737 35.0899 207.697 35.07C207.664 35.0501 207.591 35.0766 207.545 35.1363C207.491 35.1961 207.345 35.2956 207.22 35.3619Z" fill="#FFFCFC"/>
</g>
<defs>
<clipPath id="clip0_57_60">
<rect width="268" height="55" fill="white"/>
</clipPath>
</defs>
</svg>
