<svg width="16" height="16" viewBox="0 0 16 16" fill="none" xmlns="http://www.w3.org/2000/svg">
<path d="M14.259 10.9467V12.9467C14.2597 13.1324 14.2217 13.3162 14.1473 13.4863C14.0729 13.6564 13.9639 13.8091 13.827 13.9346C13.6902 14.0602 13.5287 14.1557 13.3528 14.2152C13.1769 14.2747 12.9906 14.2968 12.8057 14.2801C10.7542 14.0572 8.78365 13.3562 7.05232 12.2334C5.44154 11.2098 4.07588 9.84418 3.05232 8.2334C1.92564 6.4942 1.22448 4.51406 1.00566 2.4534C0.988996 2.26904 1.01091 2.08324 1.06999 1.90781C1.12907 1.73239 1.22404 1.57119 1.34883 1.43448C1.47363 1.29777 1.62553 1.18854 1.79485 1.11375C1.96417 1.03895 2.14722 1.00024 2.33232 1.00006H4.33232C4.65586 0.99688 4.96952 1.11145 5.21483 1.32242C5.46014 1.53339 5.62037 1.82636 5.66566 2.14673C5.75007 2.78678 5.90662 3.41522 6.13232 4.02006C6.22202 4.25868 6.24143 4.51801 6.18826 4.76732C6.13509 5.01663 6.01156 5.24547 5.83232 5.42673L4.98566 6.2734C5.93469 7.94243 7.31663 9.32436 8.98566 10.2734L9.83232 9.42673C10.0136 9.24749 10.2424 9.12396 10.4917 9.07079C10.741 9.01762 11.0004 9.03704 11.239 9.12673C11.8438 9.35243 12.4723 9.50898 13.1123 9.5934C13.4362 9.63909 13.7319 9.8022 13.9433 10.0517C14.1548 10.3013 14.2671 10.6198 14.259 10.9467Z" stroke="#B0B0D1" stroke-width="1.3" stroke-linecap="round" stroke-linejoin="round"/>
</svg>
