<svg width="16" height="15" viewBox="0 0 16 15" fill="none" xmlns="http://www.w3.org/2000/svg">
<path d="M6.10209 3.10562C6.94652 1.59079 7.36874 0.833374 7.99998 0.833374C8.63122 0.833374 9.05344 1.59079 9.89787 3.10562L10.1163 3.49753C10.3563 3.928 10.4763 4.14323 10.6634 4.28525C10.8504 4.42726 11.0834 4.47997 11.5494 4.58541L11.9736 4.68139C13.6134 5.05241 14.4333 5.23792 14.6284 5.86519C14.8234 6.49247 14.2645 7.14609 13.1466 8.45332L12.8574 8.79152C12.5397 9.163 12.3809 9.34873 12.3094 9.57852C12.2379 9.8083 12.262 10.0561 12.31 10.5517L12.3537 11.003C12.5227 12.7471 12.6072 13.6192 12.0965 14.0069C11.5859 14.3945 10.8182 14.0411 9.28286 13.3342L8.88566 13.1513C8.44936 12.9504 8.23122 12.8499 7.99998 12.8499C7.76874 12.8499 7.5506 12.9504 7.1143 13.1513L6.7171 13.3342C5.18176 14.0411 4.4141 14.3945 3.90341 14.0069C3.39273 13.6192 3.47723 12.7471 3.64624 11.003L3.68997 10.5517C3.738 10.0561 3.76201 9.8083 3.69056 9.57852C3.6191 9.34873 3.46026 9.163 3.14259 8.79152L2.85338 8.45332C1.73548 7.14609 1.17653 6.49247 1.37159 5.86519C1.56666 5.23792 2.38655 5.05241 4.02634 4.68139L4.45057 4.58541C4.91655 4.47997 5.14953 4.42726 5.33661 4.28525C5.52368 4.14323 5.64366 3.928 5.88362 3.49753L6.10209 3.10562Z" fill="#FDF41A" stroke="#FDF41A" stroke-width="1.5"/>
</svg>
