<svg width="74" height="75" viewBox="0 0 74 75" fill="none" xmlns="http://www.w3.org/2000/svg">
<path d="M28.0686 1.8822L40.9675 12.0606C41.6522 12.6055 42.4592 12.9757 43.3189 13.1391C44.1785 13.3025 45.0651 13.2544 45.9019 12.9988L61.5965 8.14874C62.5588 7.84916 63.5859 7.82524 64.5612 8.07965C65.5365 8.33407 66.421 8.85665 67.1144 9.58816C67.8078 10.3197 68.2824 11.2308 68.4844 12.2183C68.6863 13.2058 68.6076 14.2301 68.257 15.1751L62.5533 30.5788C62.249 31.3994 62.149 32.2816 62.2617 33.1495C62.3745 34.0173 62.6967 34.8447 63.2006 35.5602L72.6661 48.9939C73.2465 49.8166 73.5851 50.7854 73.6435 51.7905C73.7019 52.7957 73.4778 53.7972 72.9965 54.6816C72.5153 55.566 71.7961 56.298 70.9203 56.7949C70.0446 57.2918 69.0473 57.5336 68.0412 57.4931L51.6244 56.8364C50.7493 56.8004 49.8785 56.9781 49.0875 57.354C48.2964 57.7299 47.6087 58.2928 47.084 58.9941L37.2339 72.1275C36.6288 72.9257 35.8135 73.5397 34.8792 73.9007C33.9449 74.2617 32.9285 74.3554 31.9439 74.1713C30.9594 73.9873 30.0455 73.5327 29.3047 72.8586C28.5639 72.1845 28.0254 71.3174 27.7496 70.3545L23.2749 54.5005C23.0364 53.6589 22.598 52.8874 21.9968 52.252C21.3957 51.6166 20.6497 51.136 19.8226 50.8513L4.29698 45.5885C3.34304 45.2647 2.49885 44.6802 1.86002 43.9013C1.22119 43.1224 0.813248 42.1801 0.68241 41.1813C0.551571 40.1824 0.703063 39.1668 1.11972 38.2496C1.53638 37.3325 2.20156 36.5503 3.03992 35.9917L16.7081 26.8733C17.437 26.3893 18.0368 25.7347 18.4553 24.9664C18.8738 24.198 19.0984 23.3391 19.1097 22.4642L19.3067 6.038C19.3174 5.02705 19.6121 4.03948 20.1571 3.18793C20.7021 2.33637 21.4754 1.65511 22.3889 1.22185C23.3023 0.788588 24.3192 0.620751 25.3234 0.737509C26.3277 0.854266 27.2789 1.25092 28.0686 1.8822Z" fill="#FFD550"/>
</svg>
