<svg width="610" height="775" viewBox="0 0 610 775" fill="none" xmlns="http://www.w3.org/2000/svg">
<rect x="478" y="757" width="478" height="757" rx="239" transform="rotate(-180 478 757)" fill="#BFE3C6" fill-opacity="0.27"/>
<path d="M442.459 336.794L567.93 375.374C569.689 375.77 571.509 375.815 573.285 375.506C575.062 375.198 576.76 374.542 578.282 373.577C579.805 372.611 581.122 371.355 582.159 369.88C583.195 368.404 583.931 366.739 584.323 364.98L608.584 256.161C609.377 252.608 608.727 248.885 606.776 245.811C604.825 242.737 601.733 240.563 598.179 239.769L469.266 218.555C464.68 217.8 459.979 218.83 456.127 221.431C452.276 224.033 449.566 228.01 448.553 232.546L430.049 315.474C429.059 319.937 429.787 324.609 432.087 328.56C434.386 332.511 438.09 335.45 442.459 336.794V336.794Z" stroke="#DADEEB" stroke-width="1.37431" stroke-miterlimit="10" stroke-linecap="round"/>
<path d="M400.417 584.892C417.417 554.778 447.666 492.061 455.718 415.093" stroke="#DADEEB" stroke-width="1.37431" stroke-miterlimit="10" stroke-linecap="round"/>
<path d="M173.669 558.424C166.273 536.525 159.832 511.174 158.858 487.328" stroke="#DADEEB" stroke-width="1.37431" stroke-miterlimit="10" stroke-linecap="round"/>
<path d="M149.264 570.071C149.264 570.071 145.494 534.624 123.586 510.556L98.2831 530.092C98.2831 530.092 132.399 538.462 149.264 570.071Z" fill="#FFD550"/>
<path d="M93.3665 590.834C50.79 593.886 18.6131 627.879 21.3939 666.673C24.1747 705.468 60.871 734.524 103.448 731.472C146.024 728.42 178.201 694.427 175.42 655.633C172.639 616.838 135.943 587.782 93.3665 590.834Z" stroke="#DADEEB"/>
<path d="M127.933 413.039C127.933 413.039 112.312 414.003 105.041 405.681C101.319 401.429 92.1584 392.452 80.5679 387.302C68.9773 382.153 81.6575 402.972 81.2139 404.659C80.6353 406.916 59.2188 392.288 55.9982 396.897C52.7775 401.506 49.3351 414.013 63.8281 426.568C78.3211 439.122 123.806 457.212 136.476 455.737C149.147 454.261 144.065 424.928 127.933 413.039Z" fill="#F3ABAA"/>
<path d="M83.2682 405.981L91.8984 414.129" stroke="#0D0F44" stroke-width="0.916209" stroke-miterlimit="10" stroke-linecap="round"/>
<path d="M452.295 314.664C452.295 314.664 455.612 307.722 456.152 294.955C456.653 282.795 459.643 259.942 467 259.942C470.481 259.942 477.867 263.018 477.26 284.772C477.26 284.772 478.899 293.595 494.077 277.173C509.254 260.752 515.223 261.803 519.717 265.265C527.682 271.417 540.651 287.231 529.774 310.209C518.897 333.188 482.38 351.673 482.38 351.673L452.295 314.664Z" fill="#F3ABAA"/>
<path d="M519.264 269.286C519.264 269.286 507.924 283.027 501.482 286.643" stroke="#0D0F44" stroke-width="0.916209" stroke-miterlimit="10" stroke-linecap="round"/>
<path d="M523.999 277.974C523.999 277.974 512.669 291.715 506.218 295.331" stroke="#0D0F44" stroke-width="0.916209" stroke-miterlimit="10" stroke-linecap="round"/>
<path d="M528.153 288.33C528.153 288.33 516.823 302.052 510.372 305.687" stroke="#0D0F44" stroke-width="0.916209" stroke-miterlimit="10" stroke-linecap="round"/>
<path d="M528.153 301.609C524.59 305.887 520.808 309.978 516.823 313.864" stroke="#0D0F44" stroke-width="0.916209" stroke-miterlimit="10" stroke-linecap="round"/>
<path d="M429.426 638.36L323.973 563.408C320.722 561.097 316.999 559.536 313.072 558.839C309.145 558.142 305.112 558.326 301.265 559.377L137.338 603.994C134.509 604.76 131.931 606.255 129.861 608.331C127.791 610.406 126.303 612.988 125.544 615.819C124.786 618.651 124.784 621.631 125.539 624.463C126.294 627.295 127.779 629.88 129.846 631.958L263.957 767.39C268.416 771.905 274.394 774.603 280.73 774.96C287.066 775.316 293.309 773.305 298.246 769.318L430.207 662.351C432.009 660.885 433.449 659.022 434.412 656.908C435.376 654.793 435.838 652.485 435.762 650.162C435.687 647.84 435.075 645.566 433.976 643.519C432.877 641.472 431.32 639.706 429.426 638.36Z" fill="#0D0F44"/>
<path d="M125.68 601.459L124.966 622.865L135.438 631.785L125.68 601.459Z" fill="#0D0F44"/>
<path d="M435.759 636.692V652.767L419.636 661.185L435.759 636.692Z" fill="#0D0F44"/>
<path d="M429.422 624.437L323.969 549.474C320.718 547.163 316.995 545.603 313.068 544.906C309.141 544.209 305.108 544.393 301.26 545.444L137.334 590.06C134.505 590.826 131.927 592.322 129.857 594.397C127.787 596.472 126.299 599.055 125.54 601.886C124.781 604.717 124.78 607.698 125.534 610.53C126.289 613.362 127.775 615.946 129.842 618.024L263.953 753.456C268.418 757.965 274.399 760.654 280.735 761.002C287.072 761.349 293.311 759.33 298.242 755.337L430.203 648.418C432.003 646.952 433.441 645.089 434.404 642.976C435.366 640.862 435.827 638.555 435.752 636.234C435.676 633.913 435.066 631.641 433.968 629.594C432.87 627.548 431.314 625.783 429.422 624.437Z" fill="#22319E"/>
<path d="M155.977 620.926L204.191 669.593L205.791 662.843C208.25 651.937 215.926 617.301 222.618 581.063L162.293 597.456C159.916 598.095 157.749 599.348 156.009 601.088C154.268 602.828 153.016 604.995 152.376 607.372C151.736 609.749 151.732 612.252 152.364 614.631C152.996 617.01 154.242 619.18 155.977 620.926Z" fill="#DADEEB"/>
<path d="M344.552 694.973L341.495 700.315L407.982 646.441C409.493 645.211 410.699 643.649 411.507 641.876C412.314 640.102 412.701 638.166 412.636 636.219C412.572 634.272 412.058 632.366 411.135 630.65C410.213 628.934 408.906 627.454 407.317 626.327L376.228 604.235C369.088 635.568 358.463 666.004 344.552 694.973Z" fill="#DADEEB"/>
<path d="M273.066 178.288C273.066 178.288 242.865 173.206 237.147 228.999C232.76 271.812 228.691 278.475 227.437 282.467C226.183 286.46 199.213 316.853 206.946 348.559C206.946 348.559 218.98 389.058 256.404 395.856C293.827 402.654 298.243 311.367 298.243 311.367C298.243 311.367 303.335 193.215 273.066 178.288Z" fill="#22319E"/>
<path d="M482.033 558.412C463.799 558.412 449.017 543.63 449.017 525.396C449.017 507.161 463.799 492.379 482.033 492.379C500.268 492.379 515.05 507.161 515.05 525.396C515.05 543.63 500.268 558.412 482.033 558.412Z" fill="#22319E"/>
<path d="M470.325 524.769L483.044 541.162C483.257 541.444 483.544 541.661 483.872 541.791C484.201 541.921 484.559 541.958 484.907 541.899C485.255 541.839 485.581 541.685 485.847 541.453C486.114 541.221 486.312 540.92 486.419 540.583L493.68 518.579C493.793 518.244 493.812 517.885 493.735 517.54C493.659 517.195 493.489 516.878 493.244 516.624C492.999 516.369 492.689 516.187 492.348 516.096C492.006 516.005 491.646 516.01 491.308 516.11L471.338 521.684C471.024 521.765 470.737 521.923 470.501 522.144C470.265 522.365 470.088 522.642 469.988 522.95C469.887 523.257 469.865 523.585 469.924 523.903C469.983 524.221 470.121 524.519 470.325 524.769Z" fill="white"/>
<path d="M13.0722 313.006L101.92 340.912C103.397 341.376 104.95 341.544 106.492 341.407C108.033 341.27 109.533 340.831 110.904 340.115C112.276 339.399 113.493 338.419 114.487 337.232C115.48 336.045 116.229 334.675 116.693 333.198L134.455 276.644C135.355 273.779 135.128 270.679 133.819 267.977C132.511 265.274 130.221 263.173 127.416 262.102L39.5993 228.546C37.8867 228.007 36.0847 227.812 34.2965 227.97C32.5083 228.129 30.7688 228.638 29.1775 229.469C27.5861 230.3 26.1742 231.437 25.0223 232.814C23.8704 234.191 23.0012 235.781 22.4642 237.494L4.14305 295.861C3.05487 299.319 3.38417 303.067 5.05853 306.282C6.73291 309.497 9.61533 311.916 13.0722 313.006Z" fill="#22319E"/>
<path d="M54.0348 292.187L66.3099 297.172L81.9408 285.022L80.128 271.908C80.0332 271.245 79.7673 270.618 79.3564 270.089C78.9455 269.559 78.4039 269.146 77.7848 268.89L49.5123 257.396C49.2754 257.3 49.0175 257.269 48.7646 257.305C48.5116 257.34 48.2726 257.442 48.0713 257.599C47.87 257.756 47.7137 257.964 47.6179 258.201C47.5222 258.438 47.4905 258.695 47.5259 258.948L51.7013 289.178C51.7967 289.839 52.0619 290.463 52.4709 290.991C52.8799 291.518 53.4188 291.93 54.0348 292.187V292.187Z" stroke="white" stroke-width="1.83242" stroke-miterlimit="10" stroke-linecap="round"/>
<path d="M66.2305 297.231L76.365 310.258C77.3967 311.579 79.5953 311.589 81.2828 310.258L90.8677 302.795C92.5551 301.483 93.0855 299.343 92.0633 298.022L81.9385 285.023L66.2305 297.231Z" stroke="white" stroke-width="1.83242" stroke-miterlimit="10" stroke-linecap="round"/>
<path d="M48.0623 257.599L62.7192 276.45" stroke="white" stroke-width="1.83242" stroke-miterlimit="10" stroke-linecap="round"/>
<path d="M65.9997 286.141C63.0174 286.141 60.5998 283.724 60.5998 280.742C60.5998 277.759 63.0174 275.342 65.9997 275.342C68.982 275.342 71.3997 277.759 71.3997 280.742C71.3997 283.724 68.982 286.141 65.9997 286.141Z" stroke="white" stroke-width="1.83242" stroke-miterlimit="10" stroke-linecap="round"/>
<path d="M204.171 669.594L268.508 734.566C272.254 738.348 277.272 740.604 282.587 740.894C287.902 741.185 293.136 739.49 297.272 736.138L341.493 700.315L344.55 694.973C358.461 666.004 369.086 635.568 376.226 604.235C390.864 541.143 388.473 492.833 388.473 492.833L233.736 493.045C234.324 511.54 228.915 547.044 222.599 581.064C215.907 617.301 208.231 651.938 205.772 662.844L204.171 669.594Z" fill="#0D0F44"/>
<path d="M328.501 562.771L314.635 568.074C314.635 568.074 314.22 612.055 263.104 724.836" stroke="#DADEEB" stroke-width="0.916209" stroke-miterlimit="10" stroke-linecap="round"/>
<path d="M314.443 290.529C314.443 290.529 355.907 292.882 371.335 322.938C390.264 359.581 412.992 355.126 444.726 317.288C445.898 315.886 447.526 314.941 449.325 314.62C451.123 314.299 452.978 314.622 454.562 315.533C466.326 322.283 490.77 339.283 479.392 358.346C464.638 383.051 420.012 434.688 382 431.737C382 431.737 388.818 474.763 388.393 492.833C388.393 492.833 365.01 522.379 306.777 521.106C248.545 519.833 233.657 493.045 233.657 493.045C233.657 493.045 233.02 448.834 231.101 437.359C231.101 437.359 192.781 466.007 136.4 455.757C136.4 455.757 143.922 429.789 127.857 413.04C127.857 413.04 183.563 397.66 189.705 389.116C195.848 380.573 212.78 332.986 216.136 325.87C220.523 316.545 233.493 300.914 258.429 293.393C283.365 285.872 314.443 290.529 314.443 290.529Z" fill="#FF2633"/>
<path d="M362.27 328.878C362.27 328.878 375.076 365.674 381.421 425.257" stroke="#DADEEB" stroke-width="0.916209" stroke-miterlimit="10" stroke-linecap="round"/>
<path d="M271.465 351.664C271.465 351.664 260.361 388.826 252.518 410.419C249.967 417.446 247.76 422.823 246.394 424.736C240.83 432.527 231.188 437.358 231.188 437.358" stroke="white" stroke-width="0.916209" stroke-miterlimit="10" stroke-linecap="round"/>
<path d="M138.239 410.06C138.239 410.06 154.776 418.642 147.65 453.028" stroke="white" stroke-width="0.916209" stroke-miterlimit="10" stroke-linecap="round"/>
<path d="M440.358 322.388C440.358 322.388 461.061 332.687 471.08 351.664" stroke="white" stroke-width="0.916209" stroke-miterlimit="10" stroke-linecap="round"/>
<path d="M325.156 188.5C325.156 188.5 343.207 196.696 330.44 225.846L314.481 197.689L325.156 188.5Z" fill="#22319E"/>
<path d="M266.992 245.786C266.992 245.786 276.229 292.708 276.229 296.516C276.229 300.325 301.59 306.342 315.842 294.588C315.842 294.588 305.235 263.914 303.364 256.239C301.493 248.563 280.25 240.058 266.992 245.786Z" fill="#F3ABAA"/>
<path d="M266.991 245.786L305.794 264.483C307.153 268.765 308.831 273.866 310.47 278.687C310.47 278.687 276.248 284.097 266.991 245.786Z" fill="#0D0F44"/>
<path d="M261.87 227.494C261.87 247.561 277.24 269.276 296.208 269.276C319.292 269.276 331.982 255.593 330.555 227.494C329.533 207.563 315.175 191.18 296.208 191.18C277.24 191.18 261.87 207.437 261.87 227.494Z" fill="#F3ABAA"/>
<path d="M277.808 228.256C298.241 230.232 325.259 214.428 325.153 188.499C325.047 162.569 301.278 161.605 297.681 161.605C294.085 161.605 262.659 166.349 253.026 197.765C243.393 229.181 269.245 227.426 277.808 228.256Z" fill="#22319E"/>
<path d="M259.493 243.103C252.243 238.917 248.44 231.931 250.999 227.499C253.558 223.067 261.51 222.867 268.76 227.053C276.01 231.239 279.813 238.225 277.254 242.657C274.695 247.089 266.743 247.289 259.493 243.103Z" fill="#F3ABAA"/>
<path d="M296.745 255.4C296.745 255.4 288.829 256.412 285.598 249.479" stroke="#0D0F44" stroke-width="0.916209" stroke-miterlimit="10" stroke-linecap="round"/>
<path d="M267.03 236.674L256.25 232.016" stroke="#0D0F44" stroke-width="0.916209" stroke-miterlimit="10" stroke-linecap="round"/>
<path d="M311.839 231.698L314.067 241.196C314.131 241.471 314.138 241.757 314.086 242.036C314.035 242.314 313.927 242.579 313.768 242.813C313.61 243.048 313.405 243.247 313.166 243.398C312.927 243.55 312.659 243.65 312.379 243.693L310.094 244.06" stroke="#0D0F44" stroke-width="0.916209" stroke-miterlimit="10" stroke-linecap="round"/>
<path d="M318.09 227.277C317.76 224.528 318.642 222.161 320.059 221.991C321.476 221.821 322.892 223.912 323.222 226.662C323.552 229.411 322.67 231.778 321.253 231.948C319.836 232.118 318.42 230.027 318.09 227.277Z" fill="#0D0F44"/>
<path d="M298.237 230.69C297.907 227.941 298.789 225.574 300.206 225.404C301.623 225.234 303.039 227.325 303.369 230.075C303.699 232.824 302.817 235.191 301.4 235.361C299.983 235.531 298.567 233.44 298.237 230.69Z" fill="#0D0F44"/>
<path d="M424.405 112.466C425.794 105.724 428.924 99.4636 433.484 94.307C438.043 89.1503 443.874 85.2776 450.395 83.0742C456.917 80.8707 463.901 80.4134 470.654 81.7476C477.407 83.0818 483.693 86.1611 488.887 90.679C494.08 95.197 498 100.996 500.256 107.499C502.512 114.003 503.026 120.983 501.746 127.747C500.467 134.511 497.438 140.821 492.962 146.051C488.487 151.281 482.719 155.247 476.235 157.556C474.771 158.088 473.47 158.989 472.456 160.172C471.443 161.354 470.751 162.778 470.449 164.306L469.485 168.828C469.055 170.904 468.221 172.876 467.029 174.629C465.838 176.383 464.312 177.885 462.54 179.049C460.768 180.213 458.784 181.017 456.701 181.414C454.618 181.811 452.478 181.794 450.402 181.364C448.325 180.934 446.354 180.1 444.6 178.908C442.847 177.716 441.345 176.191 440.181 174.419C439.017 172.647 438.213 170.663 437.816 168.58C437.419 166.497 437.436 164.357 437.866 162.281L438.83 157.797C439.154 156.284 439.084 154.713 438.628 153.234C438.172 151.756 437.346 150.418 436.227 149.35C431.243 144.743 427.536 138.926 425.464 132.463C423.393 126 423.028 119.112 424.405 112.466Z" fill="#FFD550"/>
<path d="M462.072 159.909L439.026 155.145" stroke="#FF2633" stroke-width="2.29052" stroke-miterlimit="10" stroke-linecap="round"/>
<path d="M458.88 89.1702C458.88 89.1702 442.574 91.6195 437.859 105.949" stroke="white" stroke-width="1.83242" stroke-miterlimit="10" stroke-linecap="round"/>
<path d="M506.908 95.1577C506.908 95.1577 520.022 109.94 512.8 132.224" stroke="#FF2633" stroke-width="2.29052" stroke-miterlimit="10" stroke-linecap="round"/>
<path d="M519.455 85.0719C519.455 85.0719 538.74 106.836 528.133 139.65" stroke="#FF2633" stroke-width="2.29052" stroke-miterlimit="10" stroke-linecap="round"/>
<path d="M174.944 35.1808L187.843 45.3592C188.527 45.9041 189.334 46.2742 190.194 46.4377C191.054 46.6011 191.94 46.5529 192.777 46.2973L208.471 41.4473C209.434 41.1477 210.461 41.1238 211.436 41.3782C212.411 41.6327 213.296 42.1552 213.989 42.8867C214.683 43.6182 215.157 44.5294 215.359 45.5169C215.561 46.5044 215.483 47.5287 215.132 48.4737L209.428 63.8774C209.124 64.698 209.024 65.5802 209.137 66.4481C209.249 67.3159 209.572 68.1432 210.076 68.8588L219.541 82.2924C220.122 83.1152 220.46 84.0839 220.518 85.0891C220.577 86.0943 220.353 87.0957 219.872 87.9802C219.39 88.8646 218.671 89.5966 217.795 90.0935C216.92 90.5904 215.922 90.8322 214.916 90.7917L198.499 90.135C197.624 90.099 196.754 90.2766 195.962 90.6526C195.171 91.0285 194.484 91.5914 193.959 92.2926L184.109 105.426C183.504 106.224 182.688 106.838 181.754 107.199C180.82 107.56 179.803 107.654 178.819 107.47C177.834 107.286 176.921 106.831 176.18 106.157C175.439 105.483 174.9 104.616 174.625 103.653L170.15 87.7991C169.911 86.9575 169.473 86.186 168.872 85.5506C168.271 84.9151 167.525 84.4346 166.698 84.1499L151.172 78.8871C150.218 78.5633 149.374 77.9788 148.735 77.1999C148.096 76.4209 147.688 75.4787 147.557 74.4798C147.427 73.481 147.578 72.4654 147.995 71.5482C148.411 70.631 149.077 69.8489 149.915 69.2903L163.583 60.1719C164.312 59.6879 164.912 59.0333 165.33 58.265C165.749 57.4966 165.973 56.6377 165.985 55.7628L166.182 39.3366C166.192 38.3256 166.487 37.3381 167.032 36.4865C167.577 35.635 168.35 34.9537 169.264 34.5204C170.177 34.0872 171.194 33.9193 172.198 34.0361C173.203 34.1529 174.154 34.5495 174.944 35.1808Z" fill="#FFD550"/>
</svg>
